<?xml version="1.0" encoding="iso-8859-1"?>
<!-- Generator: Adobe Illustrator 19.0.0, SVG Export Plug-In . SVG Version: 6.00 Build 0)  -->
<svg version="1.1" id="Capa_1" xmlns="http://www.w3.org/2000/svg" xmlns:xlink="http://www.w3.org/1999/xlink" x="0px" y="0px"
	 viewBox="0 0 512 512" style="enable-background:new 0 0 512 512;" xml:space="preserve">
<g>
	<g>
		<path d="M117.333,74.667C51.541,74.667,0,102.784,0,138.667v128c0,35.904,51.541,64,117.333,64s117.333-28.096,117.333-64v-128
			C234.667,102.784,183.125,74.667,117.333,74.667z M117.333,181.333c-56.576,0-96-22.485-96-42.667S60.757,96,117.333,96
			c56.576,0,96,22.485,96,42.667S173.909,181.333,117.333,181.333z"/>
	</g>
</g>
<g>
	<g>
		<path d="M117.333,117.333c-19.925,0-53.333,2.773-53.333,21.333S97.408,160,117.333,160c19.925,0,53.333-2.773,53.333-21.333
			S137.259,117.333,117.333,117.333z"/>
	</g>
</g>
<g>
	<g>
		<path d="M394.667,32c-65.792,0-117.333,28.117-117.333,64v128c0,35.883,51.541,64,117.333,64S512,259.883,512,224V96
			C512,60.117,460.459,32,394.667,32z M394.667,138.667c-56.576,0-96-22.485-96-42.667s39.424-42.667,96-42.667
			c56.576,0,96,22.485,96,42.667S451.243,138.667,394.667,138.667z"/>
	</g>
</g>
<g>
	<g>
		<path d="M394.667,74.667c-19.925,0-53.333,2.773-53.333,21.333s33.408,21.333,53.333,21.333S448,114.56,448,96
			S414.592,74.667,394.667,74.667z"/>
	</g>
</g>
<g>
	<g>
		<path d="M501.333,416H216.661l245.525-85.931c5.568-1.941,8.491-8.021,6.549-13.589s-8-8.533-13.589-6.549L152.107,416H10.667
			C4.779,416,0,420.779,0,426.667c0,5.888,4.779,10.667,10.667,10.667h80.491L28.48,459.264c-5.568,1.941-8.491,8.021-6.549,13.589
			C23.467,477.248,27.584,480,32,480c1.173,0,2.347-0.192,3.52-0.597l120.171-42.069h345.643c5.888,0,10.667-4.779,10.667-10.667
			C512,420.779,507.221,416,501.333,416z"/>
	</g>
</g>
<g>
</g>
<g>
</g>
<g>
</g>
<g>
</g>
<g>
</g>
<g>
</g>
<g>
</g>
<g>
</g>
<g>
</g>
<g>
</g>
<g>
</g>
<g>
</g>
<g>
</g>
<g>
</g>
<g>
</g>
</svg>
