<svg id="Capa_1" enable-background="new 0 0 511.998 511.998" height="512" viewBox="0 0 511.998 511.998" width="512" xmlns="http://www.w3.org/2000/svg"><g><path d="m456.831 229.311h-47.224l-90.549-170.119c-2.076-32.986-29.558-59.192-63.059-59.192s-60.984 26.206-63.06 59.193l-90.549 170.117h-47.224c-30.418 0-55.165 24.748-55.165 55.167v172.353c0 30.419 24.747 55.167 55.165 55.167h401.665c30.419 0 55.166-24.748 55.166-55.167v-172.352c0-30.419-24.747-55.167-55.166-55.167zm-200.832-199.311c18.306 0 33.199 14.894 33.199 33.2s-14.893 33.199-33.199 33.199c-18.307 0-33.2-14.894-33.2-33.199 0-18.306 14.893-33.2 33.2-33.2zm-51.025 70.432c11.507 15.728 30.088 25.968 51.025 25.968 20.936 0 39.517-10.24 51.024-25.968l68.599 128.879h-239.246zm277.023 356.399c0 13.877-11.29 25.167-25.166 25.167h-401.665c-13.876 0-25.165-11.29-25.165-25.167v-172.353c0-13.877 11.289-25.167 25.165-25.167h56.123c.033 0 .065.003.098.003.029 0 .058-.003.087-.003h289.05c.029 0 .058.003.087.003.033 0 .065-.003.098-.003h56.121c13.876 0 25.166 11.29 25.166 25.167v172.353z"/><path d="m145.873 322.455c-17.265 0-30.606 8.108-30.606 29.952v36.494c0 21.842 13.342 29.953 30.606 29.953 17.266 0 30.737-8.111 30.737-29.953v-36.494c0-21.843-13.471-29.952-30.737-29.952zm13.735 66.446c0 10.333-5.234 15.042-13.735 15.042-8.632 0-13.603-4.709-13.603-15.042v-36.494c0-10.334 4.971-15.041 13.603-15.041 8.501 0 13.735 4.707 13.735 15.041z"/><path d="m223.825 322.455h-26.291c-3.926 0-6.41 2.485-6.41 5.231v85.02c0 3.533 4.189 5.364 8.504 5.364 4.186 0 8.501-1.831 8.501-5.364v-30.346h14.647c17.266 0 30.74-8.242 30.74-29.69v-.784c.001-21.451-13.08-29.431-29.691-29.431zm12.687 31.524c0 10.203-5.232 15.041-13.735 15.041h-14.647v-31.654h14.647c8.504 0 13.735 4.84 13.735 15.041z"/><path d="m317.997 337.366c3.398 0 5.362-3.531 5.362-7.588 0-3.529-1.702-7.323-5.362-7.323h-46.566c-3.793 0-7.455 1.829-7.455 5.362v84.889c0 3.533 3.662 5.364 7.455 5.364h46.566c3.66 0 5.362-3.794 5.362-7.327 0-4.053-1.964-7.586-5.362-7.586h-37.017v-26.289h19.88c3.662 0 5.365-3.533 5.365-6.541 0-3.532-1.964-6.803-5.365-6.803h-19.88v-26.158z"/><path d="m388.228 322.455c-4.314 0-8.5 1.569-8.5 5.231v52.583l-25.242-48.789c-4.055-7.718-6.541-9.025-12.691-9.025-4.314 0-8.5 1.7-8.5 5.362v84.889c0 3.533 4.186 5.364 8.5 5.364 4.188 0 8.504-1.831 8.504-5.364v-52.581l28.121 52.581c2.225 4.057 5.754 5.364 9.809 5.364 4.189 0 8.504-1.831 8.504-5.364v-85.02c-.002-3.662-4.316-5.231-8.505-5.231z"/></g></svg>